<?xml version="1.0" standalone="no"?>
<!DOCTYPE svg PUBLIC "-//W3C//DTD SVG 20010904//EN"
 "http://www.w3.org/TR/2001/REC-SVG-20010904/DTD/svg10.dtd">
<svg version="1.0" xmlns="http://www.w3.org/2000/svg"
 width="1201.000000pt" height="1201.000000pt" viewBox="0 0 1201.000000 1201.000000"
 preserveAspectRatio="xMidYMid meet">

<g transform="translate(0.000000,1201.000000) scale(0.100000,-0.100000)"
fill="#000000" stroke="none">
<path d="M6930 11664 c-25 -7 -57 -14 -72 -14 -15 0 -30 -4 -33 -10 -3 -5 -14
-10 -23 -10 -29 0 -148 -96 -190 -152 -41 -55 -59 -84 -134 -228 -53 -101
-108 -238 -138 -345 -5 -16 -16 -55 -25 -85 -19 -60 -27 -107 -64 -340 -17
-104 -14 -455 4 -523 8 -32 15 -73 15 -92 0 -19 5 -37 10 -40 6 -3 10 -30 10
-59 0 -29 3 -56 7 -60 9 -9 33 -96 40 -149 3 -20 9 -40 14 -43 5 -3 9 -18 9
-33 0 -15 3 -31 6 -34 11 -11 43 -110 44 -134 0 -12 4 -24 9 -27 5 -3 11 -23
14 -43 3 -21 14 -67 23 -103 12 -44 19 -115 22 -220 3 -146 -2 -197 -29 -305
-6 -22 -13 -51 -15 -65 -3 -14 -9 -34 -14 -45 -4 -11 -20 -51 -36 -90 -26 -65
-111 -210 -145 -245 -8 -9 -39 -45 -69 -80 -62 -73 -57 -68 -125 -141 -27 -30
-68 -74 -89 -99 -21 -25 -64 -72 -95 -105 -31 -33 -90 -98 -132 -145 -42 -47
-110 -121 -152 -165 -73 -78 -76 -80 -120 -78 -25 1 -54 6 -66 12 -24 13 -204
15 -229 2 -9 -5 -35 -17 -56 -27 -40 -20 -152 -126 -214 -204 -75 -95 -94
-110 -132 -110 -28 0 -43 8 -71 38 -37 39 -68 67 -164 147 -87 73 -94 75 -199
75 l-95 0 -63 -62 c-71 -71 -196 -203 -247 -263 -19 -22 -76 -85 -127 -140
-51 -55 -103 -113 -115 -130 -13 -16 -26 -32 -29 -35 -3 -3 -48 -52 -99 -110
-52 -58 -119 -132 -150 -165 -31 -33 -73 -80 -93 -105 -20 -25 -82 -92 -138
-150 -89 -92 -125 -132 -203 -224 -10 -11 -35 -39 -55 -61 -20 -22 -66 -74
-102 -115 -35 -41 -67 -77 -70 -80 -26 -25 -146 -158 -190 -210 -30 -35 -86
-97 -125 -138 -81 -86 -111 -128 -131 -184 -18 -52 -18 -87 2 -154 12 -44 26
-63 74 -106 55 -49 58 -55 52 -85 -4 -19 -32 -58 -72 -100 -36 -37 -94 -102
-130 -143 -35 -41 -67 -77 -70 -80 -3 -3 -17 -28 -33 -56 -37 -70 -38 -162 -3
-228 25 -46 129 -154 178 -183 61 -37 53 -93 -24 -167 -52 -50 -108 -138 -108
-170 0 -9 -4 -16 -10 -16 -5 0 -10 -6 -10 -14 0 -15 -62 -56 -86 -56 -8 0 -14
-4 -14 -10 0 -5 -6 -10 -13 -10 -35 0 -147 -150 -147 -196 0 -35 -84 -114
-120 -114 -17 0 -90 -71 -116 -112 -13 -21 -24 -49 -24 -62 0 -14 -4 -28 -10
-31 -5 -3 -10 -15 -10 -25 0 -23 -59 -70 -88 -70 -28 0 -113 -85 -135 -135
-10 -22 -22 -48 -27 -57 -6 -10 -10 -26 -10 -37 0 -25 -43 -66 -97 -93 -25
-13 -56 -36 -69 -53 -13 -16 -29 -35 -34 -42 -6 -7 -10 -17 -10 -23 0 -6 -4
-18 -9 -28 -27 -51 -34 -101 -22 -149 21 -78 31 -94 123 -188 62 -65 86 -96
83 -110 -2 -11 -4 -26 -4 -33 -1 -7 -26 -39 -56 -72 -30 -32 -57 -72 -61 -87
-3 -15 -10 -44 -15 -63 -11 -42 4 -127 34 -188 20 -42 105 -129 222 -227 33
-27 109 -98 170 -156 258 -248 267 -254 390 -254 109 0 175 31 264 124 l66 69
70 -65 c39 -35 80 -71 93 -80 36 -25 20 -76 -47 -148 -165 -177 -192 -198
-295 -240 -42 -16 -181 -21 -190 -6 -3 5 -17 12 -31 15 -42 11 -126 71 -185
131 -68 70 -283 264 -369 333 -61 49 -69 52 -121 52 -49 0 -60 -4 -83 -28 -21
-22 -27 -38 -27 -73 0 -51 3 -54 225 -254 55 -50 109 -99 121 -110 12 -11 56
-51 99 -89 43 -39 83 -75 89 -81 23 -22 102 -71 141 -87 80 -32 133 -40 242
-36 92 4 120 9 188 36 107 42 168 93 316 260 68 77 126 141 129 141 3 1 28
-17 55 -39 83 -66 129 -85 215 -85 103 0 137 21 282 178 121 131 151 175 163
241 4 21 14 40 24 43 62 19 118 54 165 103 43 45 58 70 75 124 12 38 21 74 21
82 0 8 8 14 18 14 34 0 121 51 162 96 46 50 77 112 88 176 6 35 12 43 37 50
121 37 204 125 236 251 10 42 16 48 70 75 l59 30 74 -69 c87 -81 160 -119 231
-119 114 0 159 32 337 234 62 72 124 143 138 158 l25 28 50 -40 c75 -60 121
-80 191 -80 96 0 140 28 269 171 379 421 711 788 794 879 123 134 179 196 326
360 66 73 220 243 341 376 261 286 289 319 309 367 22 53 19 138 -6 192 -20
43 -139 166 -196 201 -15 10 -35 27 -43 37 -8 10 -27 32 -42 50 -15 18 -28 35
-28 38 0 3 44 55 98 116 134 150 171 203 193 274 27 87 25 166 -7 247 -15 37
-35 78 -44 92 -18 25 -18 25 38 86 32 33 163 175 292 314 129 140 291 311 360
380 190 193 329 275 566 336 102 27 122 29 304 28 161 0 216 -4 315 -23 195
-38 204 -39 345 -60 312 -45 479 -51 713 -25 422 46 780 187 1093 430 167 130
247 242 273 383 24 126 -30 321 -136 489 -18 29 -33 55 -33 58 0 3 -25 38 -55
77 -116 152 -150 177 -241 177 l-63 0 -60 -62 c-33 -35 -84 -92 -113 -127 -52
-64 -193 -189 -214 -190 -5 -1 -19 -9 -30 -18 -38 -34 -211 -123 -238 -123 -9
0 -16 -4 -16 -10 0 -5 -11 -10 -25 -10 -14 0 -33 -4 -43 -9 -35 -18 -110 -33
-202 -41 -109 -10 -393 -2 -430 12 -14 6 -59 14 -100 19 -41 4 -102 13 -135
19 -33 6 -88 14 -121 19 -34 4 -68 12 -75 17 -57 35 -711 35 -769 -1 -6 -4
-37 -11 -68 -16 -146 -24 -245 -51 -304 -80 -10 -5 -29 -9 -43 -9 -14 0 -25
-4 -25 -10 0 -5 -7 -10 -15 -10 -32 0 -386 -174 -405 -199 -3 -3 -18 -15 -35
-25 -119 -73 -283 -216 -404 -352 -25 -27 -99 -107 -165 -178 -150 -160 -135
-144 -175 -191 -18 -22 -66 -74 -105 -115 -40 -41 -92 -100 -116 -130 -69 -84
-87 -100 -113 -100 -24 0 -68 34 -177 137 -25 24 -50 43 -56 43 -9 0 -44 35
-87 86 -20 24 -36 4 623 714 142 153 224 256 295 370 243 393 361 887 320
1345 -15 174 -57 402 -100 545 -15 51 -23 80 -45 155 -4 17 -17 59 -28 95 -61
193 -81 384 -58 557 33 251 131 459 315 671 110 126 121 146 121 209 0 44 -6
63 -27 93 -25 34 -197 160 -219 160 -8 0 -57 22 -136 61 -10 5 -29 9 -42 9
-14 0 -28 5 -31 10 -3 6 -21 10 -38 10 -18 0 -67 7 -110 15 -95 18 -118 18
-177 -1z m248 -234 c74 -21 245 -100 257 -120 4 -6 -12 -34 -35 -63 -182 -230
-269 -395 -333 -637 -29 -109 -31 -125 -31 -310 0 -222 7 -261 93 -562 118
-408 144 -563 144 -833 0 -328 -58 -587 -196 -870 -121 -248 -170 -308 -701
-875 -116 -124 -233 -248 -261 -277 l-50 -52 -200 183 c-110 101 -200 188
-200 194 0 10 153 182 380 427 368 397 414 453 496 610 108 204 148 360 156
601 7 206 -7 303 -74 534 -25 85 -58 200 -75 255 -153 526 -111 1057 123 1523
115 232 187 292 349 292 55 0 111 -7 158 -20z m4139 -3548 c61 -94 96 -189
101 -273 8 -128 -19 -174 -173 -294 -202 -158 -437 -275 -680 -338 -194 -51
-282 -61 -540 -61 -254 -1 -301 4 -625 64 -262 48 -329 55 -510 55 -147 0
-192 -4 -279 -23 -243 -55 -436 -147 -610 -292 -33 -28 -223 -227 -422 -443
-199 -215 -371 -402 -383 -414 l-21 -22 -151 132 c-83 73 -178 157 -212 187
l-61 56 287 314 c393 432 581 619 715 713 351 247 796 380 1217 364 155 -6
249 -18 580 -76 336 -58 552 -64 774 -21 294 57 550 200 771 431 l100 105 44
-56 c24 -30 59 -79 78 -108z m-5967 -743 c19 -12 78 -61 130 -108 114 -105
647 -583 780 -700 121 -107 488 -441 600 -546 47 -44 122 -113 167 -154 46
-40 80 -77 77 -82 -3 -5 2 -6 10 -3 25 10 66 -63 66 -119 0 -60 -8 -75 -83
-159 -51 -57 -63 -66 -76 -55 -14 10 -14 10 -3 -4 11 -15 6 -24 -36 -70 l-49
-53 -154 140 c-85 76 -228 204 -319 284 -216 190 -826 735 -1333 1193 l-187
168 78 87 c42 48 93 107 112 130 19 24 46 50 60 58 39 21 119 17 160 -7z
m-848 -205 c78 -72 204 -184 278 -251 132 -117 264 -235 580 -517 85 -76 358
-319 605 -539 489 -436 810 -724 920 -827 39 -36 127 -114 195 -174 69 -60
129 -113 134 -117 10 -9 -10 -32 -393 -454 -487 -536 -712 -784 -1382 -1522
l-47 -53 -69 63 c-37 35 -189 171 -338 303 -148 132 -412 366 -585 520 -650
579 -796 710 -841 749 -52 46 -719 641 -916 818 -73 65 -133 122 -133 126 0 7
448 513 594 671 28 31 96 107 151 170 55 62 125 141 155 175 30 34 105 117
165 185 61 68 253 282 428 477 290 323 320 352 337 340 10 -7 83 -71 162 -143z
m-1655 -2506 c125 -112 275 -246 333 -298 382 -341 1167 -1039 1224 -1089 28
-24 75 -66 105 -93 l53 -49 -23 -29 c-13 -15 -75 -86 -136 -155 -64 -72 -110
-132 -106 -139 3 -6 3 -8 -2 -4 -9 9 -35 -9 -35 -25 0 -6 3 -7 7 -4 9 9 44
-23 37 -34 -7 -13 -107 73 -438 377 -67 60 -240 216 -386 346 -146 129 -317
282 -380 339 -63 57 -198 178 -300 269 -102 90 -212 189 -245 220 -34 30 -102
92 -153 138 -51 46 -92 88 -92 93 0 5 37 50 83 101 45 50 111 124 146 165 35
40 68 73 72 73 5 0 111 -91 236 -202z m-264 -722 c40 -35 162 -144 272 -242
110 -98 332 -297 494 -443 162 -146 360 -324 440 -395 80 -71 182 -163 226
-204 l80 -74 -70 50 c-38 27 -158 112 -267 188 -108 76 -249 175 -313 219 -64
44 -331 231 -593 416 -429 302 -477 339 -480 365 -2 24 9 44 65 107 37 42 69
77 71 77 2 0 36 -29 75 -64z m-545 -713 c840 -584 1608 -1128 1655 -1173 33
-31 30 -63 -8 -104 -34 -36 -71 -43 -103 -19 -15 11 -110 78 -212 150 -102 71
-252 177 -335 236 -82 58 -271 190 -420 293 -364 253 -745 523 -772 547 -26
23 -31 83 -10 109 17 21 48 37 73 38 11 0 71 -35 132 -77z m2722 -280 c0 -3
-23 16 -51 41 -28 25 -54 44 -58 41 -5 -2 -21 9 -36 25 -15 16 -31 27 -36 25
-4 -3 -5 4 -2 15 5 17 17 9 94 -61 49 -45 89 -83 89 -86z m-1750 91 c0 -3 -13
4 -30 16 -16 12 -30 24 -30 26 0 3 14 -4 30 -16 17 -12 30 -24 30 -26z m44
-33 c-2 -3 -12 3 -22 13 -16 17 -16 18 5 5 12 -7 20 -15 17 -18z m1815 -148
c47 -42 90 -80 95 -85 12 -9 -98 -135 -118 -135 -11 0 -13 4 -6 12 5 7 6 16 2
20 -4 5 -2 5 5 1 6 -3 14 -2 18 4 4 6 11 7 17 4 7 -5 8 -2 4 5 -5 7 -14 10
-22 7 -8 -3 -11 0 -8 9 3 8 11 12 18 9 7 -3 19 2 26 12 16 19 23 47 9 38 -5
-3 -9 -13 -10 -22 0 -11 -2 -12 -6 -4 -2 6 -10 10 -16 6 -7 -3 4 9 23 26 33
30 34 31 8 21 -18 -7 -28 -7 -28 -1 0 6 9 10 21 10 11 0 17 5 14 10 -4 6 -11
8 -16 4 -5 -3 -8 0 -7 8 2 7 -4 12 -12 10 -8 -2 -12 0 -8 3 8 8 -40 50 -57 50
-5 0 -10 7 -10 15 -1 8 -7 14 -14 12 -7 -1 -10 2 -7 7 4 5 0 12 -6 14 -7 3 -9
6 -4 6 5 1 47 -34 95 -76z m-1638 30 c13 -16 12 -17 -3 -4 -17 13 -22 21 -14
21 2 0 10 -8 17 -17z m1140 -190 c8 -9 14 -19 14 -22 0 -3 3 -5 6 -4 3 1 6 -5
6 -13 0 -18 2 -20 -37 21 -23 24 -29 35 -18 35 8 0 22 -7 29 -17z m-2918 -65
c34 -23 105 -71 157 -108 52 -37 217 -152 365 -255 149 -104 306 -214 350
-245 44 -31 143 -101 220 -155 261 -184 314 -225 308 -241 -3 -8 -7 -14 -10
-14 -3 0 -3 7 1 15 3 9 0 15 -9 15 -8 0 -15 4 -15 9 0 5 -8 8 -17 6 -10 -1
-17 -8 -15 -15 1 -6 -2 -9 -6 -6 -5 3 -40 -29 -78 -72 -106 -118 -101 -107
-70 -147 15 -20 32 -32 38 -29 6 4 8 3 5 -3 -7 -11 21 -41 37 -42 6 0 11 -8
12 -17 1 -9 -23 8 -55 38 -31 29 -120 107 -196 173 -77 66 -169 147 -205 180
-204 187 -903 820 -925 836 -33 27 -35 81 -3 103 32 23 42 21 111 -26z m3031
-47 c8 0 20 -31 12 -31 -1 0 -22 21 -46 47 -28 30 -32 36 -10 16 19 -18 39
-32 44 -32z m268 -67 c-31 -35 -60 -60 -66 -57 -5 3 -6 1 -2 -5 6 -11 -9 -25
-31 -28 -6 -1 -26 14 -45 34 -18 20 -25 30 -15 23 9 -7 17 -11 17 -7 0 3 9 -2
19 -11 11 -9 18 -20 16 -23 -2 -4 2 -7 10 -7 10 0 11 5 4 19 -7 14 -6 18 5 18
8 0 25 10 38 23 13 12 35 30 50 40 16 9 27 21 27 25 -2 14 1 19 15 19 8 0 -11
-29 -42 -63z m-42 11 c-7 -9 -15 -13 -19 -10 -3 3 1 10 9 15 21 14 24 12 10
-5z m-2369 -22 c13 -16 12 -17 -3 -4 -10 7 -18 15 -18 17 0 8 8 3 21 -13z
m139 -97 c0 -1 -7 -3 -15 -3 -8 0 -13 3 -10 5 3 3 -18 20 -45 39 -28 18 -50
36 -50 39 0 2 27 -14 60 -36 33 -22 60 -42 60 -44z m30 -21 c11 -13 10 -14 -4
-9 -9 3 -16 10 -16 15 0 13 6 11 20 -6z m71 -52 c13 -16 12 -17 -3 -4 -17 13
-22 21 -14 21 2 0 10 -8 17 -17z m139 -100 c0 -8 -62 33 -78 51 -9 11 4 5 31
-14 26 -18 47 -35 47 -37z m-140 -90 c0 -7 -39 17 -46 28 -3 6 5 3 20 -6 14
-10 26 -19 26 -22z m341 -50 c13 -16 12 -17 -3 -4 -17 13 -22 21 -14 21 2 0
10 -8 17 -17z m-1177 -228 c98 -88 205 -184 239 -214 34 -29 84 -74 111 -99
l48 -45 -53 -48 c-60 -54 -90 -66 -125 -53 -36 14 -564 506 -570 532 -9 35 2
63 47 115 l41 47 42 -37 c23 -21 122 -110 220 -198z m1270 -338 c21 -17 25
-24 13 -24 -10 0 -15 2 -12 5 8 8 -69 61 -79 55 -5 -4 -6 -2 -3 4 4 6 -9 19
-28 29 -19 10 -35 22 -35 27 0 8 85 -49 144 -96z m146 -133 c0 -13 -5 -24 -11
-24 -5 0 -8 -4 -5 -9 3 -4 -3 -16 -14 -26 -12 -10 -20 -13 -20 -7 0 7 4 12 9
12 5 0 8 11 7 25 -2 13 1 22 5 19 5 -3 9 -3 9 0 0 2 3 11 6 20 4 12 0 16 -15
16 -12 0 -20 4 -18 8 1 4 -14 23 -33 41 -29 27 -26 26 23 -9 42 -31 57 -49 57
-66z m-370 -129 c19 -19 32 -35 29 -35 -3 0 -20 16 -39 35 -19 19 -32 35 -29
35 3 0 20 -16 39 -35z m82 -71 c11 -14 23 -23 25 -20 3 3 14 1 24 -5 14 -7 19
-6 19 2 0 8 5 8 16 -1 12 -11 15 -11 12 0 -2 8 4 15 12 15 8 1 14 7 12 14 -1
7 2 9 9 6 7 -5 3 -15 -12 -31 -34 -36 -77 -32 -119 11 -19 19 -30 35 -26 35 5
0 17 -11 28 -26z"/>
<path d="M6728 5623 c-110 -128 -124 -149 -110 -159 14 -10 14 -14 3 -28 -7
-9 -18 -13 -24 -9 -6 4 -7 1 -1 -8 5 -8 9 -18 9 -24 0 -5 8 -9 18 -7 10 2 17
-3 17 -13 0 -8 7 -15 16 -15 14 0 15 2 3 18 -13 15 -12 16 4 3 12 -9 14 -17 7
-26 -7 -8 -1 -20 19 -39 16 -15 32 -26 34 -24 3 1 22 -16 42 -39 33 -38 39
-42 58 -31 19 10 20 9 10 -3 -9 -11 -7 -16 12 -26 20 -9 28 -8 45 7 11 9 20
22 20 29 0 10 14 15 34 12 5 -1 6 4 3 12 -8 21 7 39 26 31 9 -3 14 -11 10 -17
-4 -6 -1 -7 7 -2 7 4 16 2 22 -6 7 -11 8 -9 6 6 -2 14 3 20 20 20 12 0 21 5
20 10 -2 6 -11 9 -20 9 -10 -1 -18 2 -18 7 0 5 -7 6 -15 3 -8 -4 -15 -1 -15 4
0 6 9 14 20 17 11 3 20 13 20 21 0 8 8 14 19 14 14 0 20 10 24 43 3 23 2 46
-4 52 -5 5 -9 19 -9 32 0 17 -4 21 -17 16 -16 -6 -15 -3 2 17 l20 23 -22 -5
c-21 -6 -21 -5 -6 18 13 20 13 27 3 40 -11 12 -15 12 -23 2 -6 -10 -8 -9 -4 3
5 16 -36 66 -51 63 -4 -1 -6 1 -5 5 1 4 -5 8 -13 8 -17 0 -18 -9 -1 -27 10
-12 9 -12 -6 0 -10 7 -15 20 -12 28 7 18 -14 44 -29 35 -6 -3 -8 -2 -3 2 7 8
-20 45 -32 45 -3 0 -63 -67 -133 -147z m-99 -219 c-14 -13 -16 -13 -16 0 0 8
4 13 9 10 4 -3 8 0 8 7 0 7 3 9 7 5 4 -3 0 -13 -8 -22z m78 -81 c0 -9 -4 -10
-14 -2 -7 6 -13 12 -13 14 0 1 6 2 13 2 8 0 14 -6 14 -14z m163 -119 c0 -8 -4
-12 -10 -9 -5 3 -10 10 -10 16 0 5 5 9 10 9 6 0 10 -7 10 -16z"/>
<path d="M7055 5580 c-3 -5 -5 -10 -3 -11 33 -8 38 -7 27 7 -14 17 -16 17 -24
4z"/>
<path d="M6586 5452 c-3 -5 1 -9 9 -9 8 0 12 4 9 9 -3 4 -7 8 -9 8 -2 0 -6 -4
-9 -8z"/>
<path d="M7045 5340 c-3 -5 1 -10 9 -10 9 0 16 5 16 10 0 6 -4 10 -9 10 -6 0
-13 -4 -16 -10z"/>
<path d="M7116 5332 c-3 -5 1 -9 9 -9 8 0 12 4 9 9 -3 4 -7 8 -9 8 -2 0 -6 -4
-9 -8z"/>
<path d="M4505 6450 c-35 -14 -66 -57 -72 -97 -4 -30 5 -62 42 -153 26 -63 58
-142 71 -176 l23 -61 -67 25 c-91 35 -221 36 -304 3 -125 -49 -230 -159 -264
-279 -12 -39 -15 -82 -12 -147 3 -82 8 -101 41 -168 54 -110 141 -180 262
-211 207 -55 399 36 510 241 0 1 21 -5 45 -13 84 -29 160 20 160 101 0 113
-238 830 -299 899 -35 40 -91 55 -136 36z m-125 -482 c54 -37 73 -71 77 -135
7 -103 -56 -167 -157 -161 -65 5 -99 26 -131 81 -75 134 87 299 211 215z"/>
<path d="M5380 4898 c-128 -16 -183 -58 -183 -140 0 -59 25 -93 81 -114 251
-89 415 -256 506 -514 27 -76 112 -104 182 -61 71 43 68 115 -12 274 -54 107
-114 196 -183 266 -28 28 -43 51 -35 51 32 0 243 -49 299 -70 182 -68 167 -64
207 -47 41 17 78 68 78 105 0 41 -29 88 -68 109 -57 32 -235 89 -352 112 -203
40 -362 49 -520 29z"/>
<path d="M3837 4840 c-42 -33 -51 -78 -31 -156 48 -193 163 -384 322 -536 91
-87 167 -141 278 -197 181 -91 299 -121 504 -128 133 -4 170 -2 260 17 185 38
230 69 230 161 0 33 -6 47 -34 75 -42 42 -71 43 -178 9 -102 -32 -212 -41
-335 -25 -388 48 -706 312 -814 674 -28 94 -60 126 -127 126 -34 0 -57 -6 -75
-20z"/>
<path d="M4270 2536 c0 -2 8 -10 18 -17 15 -13 16 -12 3 4 -13 16 -21 21 -21
13z"/>
<path d="M4590 2857 c0 -2 15 -16 33 -33 l32 -29 -29 33 c-28 30 -36 37 -36
29z"/>
<path d="M4859 2423 c-13 -16 -12 -17 4 -4 9 7 17 15 17 17 0 8 -8 3 -21 -13z"/>
<path d="M8750 10646 c-19 -13 -60 -52 -90 -87 -58 -67 -186 -203 -330 -349
-47 -47 -110 -115 -140 -150 -75 -89 -190 -209 -282 -298 -84 -81 -126 -136
-144 -189 -31 -90 76 -169 158 -115 15 9 118 116 229 237 111 121 270 292 353
380 83 88 186 198 228 244 l78 84 79 -78 c96 -93 104 -70 -89 -264 -182 -183
-421 -444 -477 -522 -26 -35 -54 -71 -62 -79 -9 -8 -41 -44 -71 -80 -30 -35
-91 -101 -135 -146 -241 -245 -273 -286 -288 -359 -3 -17 -11 -54 -16 -84 -6
-30 -15 -59 -21 -65 -5 -5 -10 -33 -10 -61 0 -28 -4 -55 -9 -61 -5 -5 -11 -36
-14 -69 -3 -33 -12 -94 -22 -135 -9 -41 -19 -111 -22 -156 -4 -81 -4 -81 27
-108 50 -42 125 -32 167 23 6 9 21 67 33 131 72 388 103 537 113 552 14 19
163 181 361 393 241 257 623 667 776 834 52 57 100 113 107 125 18 31 16 87
-5 118 -15 23 -113 117 -177 170 -11 9 -54 47 -95 85 -121 112 -146 121 -210
79z"/>
<path d="M5455 10336 c-22 -14 -62 -54 -89 -90 -70 -94 -240 -236 -281 -236
-8 0 -15 -4 -15 -10 0 -5 -8 -10 -18 -10 -10 0 -22 -4 -28 -10 -21 -21 -117
-33 -302 -39 -192 -6 -192 -6 -228 -34 -33 -27 -35 -31 -32 -85 l3 -55 80 -66
c128 -105 219 -206 250 -278 9 -21 21 -46 26 -56 10 -19 23 -72 41 -167 5 -30
12 -125 15 -210 4 -140 6 -157 25 -177 17 -18 33 -23 71 -23 56 0 49 -5 169
140 67 81 169 167 245 208 104 55 167 66 382 68 138 1 200 5 218 15 29 16 53
58 53 94 0 28 -24 81 -38 87 -77 29 -332 314 -332 370 0 8 -4 18 -9 24 -26 29
-44 155 -46 324 -1 96 -5 183 -9 192 -9 21 -61 48 -90 48 -12 0 -39 -11 -61
-24z m-61 -447 c15 -129 89 -305 167 -393 21 -24 39 -46 39 -49 0 -2 -27 -8
-61 -11 -74 -9 -177 -39 -244 -74 -63 -31 -154 -93 -179 -121 -27 -29 -32 -27
-34 19 -7 118 -67 270 -157 394 l-54 76 33 0 c49 0 183 37 253 69 69 33 168
98 197 130 11 11 22 21 26 21 4 0 11 -27 14 -61z"/>
<path d="M9775 9740 c-3 -5 -14 -10 -24 -10 -21 0 -57 -32 -133 -120 -31 -36
-94 -103 -140 -150 -45 -47 -108 -115 -138 -150 -30 -35 -134 -144 -230 -241
-329 -333 -334 -340 -334 -415 0 -42 5 -58 23 -78 51 -54 116 -41 187 37 26
29 218 235 427 459 l379 408 68 -60 c37 -33 73 -67 80 -75 15 -18 41 13 -250
-300 -254 -272 -333 -361 -385 -435 -47 -66 -151 -187 -184 -215 -26 -21 -53
-30 -133 -45 -27 -5 -54 -12 -60 -17 -7 -4 -37 -11 -65 -15 -29 -4 -77 -12
-105 -18 -29 -5 -82 -14 -118 -20 -35 -6 -69 -15 -74 -20 -6 -6 -31 -10 -57
-10 -26 0 -51 -4 -54 -10 -3 -5 -24 -10 -45 -10 -124 0 -182 -166 -76 -217 39
-18 72 -15 271 32 61 14 196 43 300 65 105 21 215 44 245 51 64 13 81 29 330
304 168 184 159 175 498 536 126 136 237 260 246 277 35 68 20 97 -125 232
-61 58 -139 131 -173 163 -33 31 -68 57 -78 57 -9 0 -20 5 -23 10 -3 6 -15 10
-25 10 -10 0 -22 -4 -25 -10z"/>
<path d="M10326 6163 c-10 -3 -40 -17 -65 -31 -54 -30 -116 -61 -151 -75 -14
-5 -38 -16 -55 -23 -72 -30 -113 -35 -255 -31 -142 4 -195 11 -255 37 -16 7
-39 16 -50 20 -11 4 -45 19 -75 34 -66 31 -152 36 -178 9 -22 -22 -42 -61 -42
-83 0 -10 32 -79 70 -154 39 -76 70 -145 70 -155 0 -10 3 -21 7 -25 12 -12 31
-134 32 -200 1 -68 -17 -186 -30 -200 -5 -6 -9 -18 -9 -28 0 -10 -4 -26 -9
-36 -5 -9 -17 -37 -26 -62 -10 -25 -26 -63 -36 -85 -38 -86 -36 -143 7 -171
44 -29 91 -20 189 35 157 89 290 131 414 131 90 0 233 -41 395 -112 90 -39
146 -36 189 12 42 47 35 103 -24 196 -90 140 -124 252 -123 399 1 130 21 215
89 372 51 120 57 169 23 200 -25 22 -71 34 -102 26z m-233 -404 c-33 -121 -22
-356 23 -473 5 -13 -1 -13 -48 0 -126 35 -326 28 -455 -17 -51 -17 -55 -17
-48 -1 19 48 35 157 35 242 0 92 -26 235 -51 281 -9 18 -8 19 18 13 15 -4 39
-11 52 -16 13 -4 64 -13 114 -18 108 -11 221 1 310 33 34 13 63 22 65 21 2 -1
-5 -30 -15 -65z"/>
</g>
</svg>
